<svg width="693" height="348" viewBox="0 0 693 348" fill="none" xmlns="http://www.w3.org/2000/svg">
<path fill-rule="evenodd" clip-rule="evenodd" d="M2.58992 0.57637H0.0899162V5.57637H2.58992H202.59V0.57637H2.58992ZM0.0899162 7.57637H2.58992H202.59V12.5764H2.58992H0.0899162V7.57637ZM243.913 208.976C251.713 211.176 259.113 212.276 266.113 212.276C273.713 212.276 281.313 210.976 288.913 208.376C296.513 205.776 303.513 202.176 309.913 197.576C316.513 192.776 321.713 187.176 325.513 180.776C329.513 174.376 331.513 167.276 331.513 159.476C331.513 154.076 330.513 148.776 328.513 143.576C325.513 135.776 321.313 128.576 315.913 121.976C310.713 115.176 305.413 108.576 300.013 102.176C294.613 95.7764 290.413 88.9764 287.413 81.7764C285.813 77.9764 285.013 74.1764 285.013 70.3764C285.013 62.7764 287.913 55.7764 293.713 49.3764C299.513 42.9764 307.913 39.7764 318.913 39.7764C324.313 39.7764 328.913 40.5764 332.713 42.1764C336.513 43.7764 339.613 45.6764 342.013 47.8764C344.613 49.8764 345.913 52.2764 345.913 55.0764C346.113 57.6764 346.213 60.0764 346.213 62.2764C346.213 65.6764 345.513 69.4764 344.113 73.6764C342.713 77.8764 341.613 80.7764 340.813 82.3764C341.213 82.9764 342.113 83.0764 343.513 82.6764C345.113 82.0764 346.113 81.6764 346.513 81.4764C346.913 79.8764 348.213 76.9764 350.413 72.7764C352.613 68.5764 354.613 65.1764 356.413 62.5764C358.013 60.3764 358.813 57.2764 358.813 53.2764C358.813 50.4764 358.213 48.1764 357.013 46.3764C352.813 41.7764 348.113 38.4764 342.913 36.4764C337.713 34.4764 332.313 33.4764 326.713 33.4764C318.513 33.4764 310.413 35.4764 302.413 39.4764C294.613 43.2764 288.313 48.3764 283.513 54.7764C278.713 61.9764 276.313 69.4764 276.313 77.2764C276.313 84.6764 278.213 91.9764 282.013 99.1764C286.413 107.176 291.213 115.376 296.413 123.776C301.813 131.976 306.113 140.376 309.313 148.976C311.713 155.176 312.913 161.376 312.913 167.576C312.913 177.776 309.613 186.376 303.013 193.376C296.613 200.376 287.513 203.876 275.713 203.876C267.113 203.876 258.313 201.876 249.313 197.876C240.513 193.676 233.613 188.076 228.613 181.076C226.613 178.276 224.913 174.976 223.513 171.176C222.313 167.176 221.713 163.276 221.713 159.476C221.713 156.676 222.113 154.076 222.913 151.676C223.913 149.076 225.413 146.776 227.413 144.776C228.213 144.376 228.213 143.776 227.413 142.976C226.813 141.976 226.313 141.476 225.913 141.476H225.613C221.613 144.476 218.213 148.876 215.413 154.676C212.613 160.476 211.213 166.476 211.213 172.676V176.276C211.413 177.476 211.613 178.576 211.813 179.576C213.813 187.576 217.713 193.976 223.513 198.776C229.513 203.576 236.313 206.976 243.913 208.976ZM352.264 201.776C353.664 202.576 355.364 202.976 357.364 202.976C363.764 202.976 369.964 201.076 375.964 197.276C382.164 193.476 387.964 188.876 393.364 183.476C396.034 180.708 398.508 178.012 400.787 175.39C398.487 180.985 397.337 186.581 397.337 192.176C397.337 196.576 398.537 199.476 400.937 200.876C403.537 202.076 406.437 202.676 409.637 202.676C423.637 202.676 436.237 197.476 447.437 187.076C448.237 187.276 449.037 187.376 449.837 187.376H452.237C459.837 187.376 466.637 185.276 472.637 181.076C475.396 179.053 477.944 176.902 480.281 174.625C477.915 179.949 476.731 184.899 476.731 189.476C476.731 193.876 478.231 197.476 481.231 200.276C484.231 203.076 489.431 204.476 496.831 204.476C504.431 204.476 512.131 202.476 519.931 198.476C527.931 194.476 535.331 189.576 542.131 183.776C548.931 177.776 554.431 171.976 558.631 166.376C559.031 165.576 559.631 164.576 560.431 163.376C561.231 161.976 561.631 160.776 561.631 159.776C561.631 158.976 561.431 158.376 561.031 157.976C558.431 161.576 554.631 165.876 549.631 170.876C544.631 175.676 539.031 180.276 532.831 184.676C526.831 188.876 520.831 191.976 514.831 193.976C512.231 194.776 509.731 195.476 507.331 196.076C505.131 196.676 503.031 196.976 501.031 196.976C498.431 196.976 496.231 196.276 494.431 194.876C492.631 193.476 491.731 191.076 491.731 187.676C491.731 184.676 492.431 181.076 493.831 176.876C496.031 169.676 499.531 162.076 504.331 154.076C509.331 146.076 514.431 139.376 519.631 133.976C521.231 132.176 524.131 130.076 528.331 127.676C532.531 125.076 536.431 123.776 540.031 123.776C543.431 123.776 545.931 125.676 547.531 129.476C549.331 133.076 550.231 136.776 550.231 140.576C550.231 141.576 550.131 142.476 549.931 143.276C549.731 144.076 549.631 144.976 549.631 145.976C549.631 146.776 550.231 146.976 551.431 146.576C552.631 145.976 553.531 145.076 554.131 143.876C555.131 141.676 556.031 139.376 556.831 136.976C557.631 134.376 558.031 131.876 558.031 129.476C558.031 126.476 557.131 123.976 555.331 121.976C553.531 119.776 550.331 118.676 545.731 118.676C541.931 118.676 537.231 119.876 531.631 122.276C526.231 124.476 521.931 126.576 518.731 128.576C513.731 131.576 509.031 135.176 504.631 139.376C500.431 143.376 496.631 147.676 493.231 152.276C491.531 154.677 489.781 157.377 487.981 160.377C487.966 160.377 487.952 160.376 487.937 160.376L487.337 160.976C482.737 167.176 477.337 172.476 471.137 176.876C464.937 181.076 458.137 183.176 450.737 183.176C452.937 180.976 454.937 178.876 456.737 176.876C458.537 174.676 460.337 172.376 462.137 169.976C465.937 164.576 469.537 158.376 472.937 151.376C476.537 144.176 478.337 137.176 478.337 130.376C478.337 125.976 477.137 122.976 474.737 121.376C472.337 119.576 469.537 118.676 466.337 118.676C462.537 118.676 457.837 119.876 452.237 122.276C446.837 124.476 442.537 126.576 439.337 128.576C434.337 131.576 429.637 135.176 425.237 139.376C421.037 143.376 417.237 147.676 413.837 152.276C412.503 154.171 411.182 156.177 409.873 158.294L409.864 158.276C409.664 158.676 408.964 159.576 407.764 160.976C406.764 162.376 405.564 163.876 404.164 165.476C400.964 169.276 397.164 173.476 392.764 178.076C388.364 182.476 384.064 186.276 379.864 189.476C375.864 192.676 372.564 194.276 369.964 194.276C368.964 194.276 367.964 193.776 366.964 192.776C365.964 191.776 365.464 190.476 365.464 188.876V187.676C365.864 183.676 366.964 178.776 368.764 172.976C370.564 166.976 372.664 161.076 375.064 155.276C377.664 149.276 380.064 143.976 382.264 139.376C384.464 134.776 386.164 131.776 387.364 130.376C388.764 128.376 390.964 127.076 393.964 126.476C397.164 125.876 400.564 125.476 404.164 125.276C407.964 125.076 411.564 124.476 414.964 123.476C417.964 122.676 419.464 121.876 419.464 121.076C419.464 120.476 418.364 120.176 416.164 120.176H391.864C395.664 112.376 399.664 104.976 403.864 97.9764C408.064 90.7764 411.864 84.6764 415.264 79.6764C418.664 74.4764 421.064 71.0764 422.464 69.4764C423.664 67.8764 423.664 67.0764 422.464 67.0764C421.864 67.0764 421.064 67.5764 420.064 68.5764C417.864 70.7764 414.764 72.9764 410.764 75.1764C406.964 77.1764 404.264 78.2764 402.664 78.4764C398.864 86.8764 394.964 94.5764 390.964 101.576C387.164 108.576 383.264 114.776 379.264 120.176H372.664C369.664 119.976 368.064 119.876 367.864 119.876C366.864 119.876 365.364 120.676 363.364 122.276C361.364 123.876 359.764 125.476 358.564 127.076C357.364 128.676 357.264 129.476 358.264 129.476C358.464 129.476 359.564 129.376 361.564 129.176C363.564 128.776 365.764 128.476 368.164 128.276C370.764 128.076 372.864 127.976 374.464 127.976C371.864 131.376 368.764 135.276 365.164 139.676L354.964 152.876C351.564 157.076 348.664 160.676 346.264 163.676C345.264 165.076 344.764 166.576 344.764 168.176C344.764 169.176 344.964 169.676 345.364 169.676C345.764 169.676 346.264 169.276 346.864 168.476C348.064 166.876 349.964 164.376 352.564 160.976C355.364 157.576 358.364 153.976 361.564 150.176C364.964 146.176 368.064 142.376 370.864 138.776C373.864 135.176 376.264 132.376 378.064 130.376L375.964 134.876C374.764 137.876 373.164 141.576 371.164 145.976C369.364 150.176 367.564 154.276 365.764 158.276C364.164 162.076 362.864 164.876 361.864 166.676C360.664 169.076 359.164 172.176 357.364 175.976C355.564 179.776 353.864 183.576 352.264 187.376C350.864 191.176 350.164 194.476 350.164 197.276C350.164 199.476 350.864 200.976 352.264 201.776ZM426.437 194.576C423.237 196.576 420.237 197.576 417.437 197.576C414.637 197.576 412.837 196.176 412.037 193.376C411.837 192.576 411.637 191.876 411.437 191.276V188.876C411.437 183.676 412.937 177.976 415.937 171.776C418.937 165.576 421.737 160.176 424.337 155.576C428.937 147.376 434.637 139.776 441.437 132.776C443.237 130.976 445.937 128.976 449.537 126.776C453.337 124.576 456.537 123.476 459.137 123.476C462.337 123.476 463.937 125.776 463.937 130.376C463.937 136.176 462.537 142.376 459.737 148.976C456.937 155.576 454.137 161.276 451.337 166.076C448.937 170.076 446.337 174.076 443.537 178.076C440.737 181.876 437.637 185.476 434.237 188.876C432.437 190.676 429.837 192.576 426.437 194.576ZM598.016 198.476C600.616 201.876 604.416 203.576 609.416 203.576C612.616 203.576 615.816 202.976 619.016 201.776C622.216 200.376 624.916 198.776 627.116 196.976C632.316 192.976 637.216 188.476 641.816 183.476C646.416 178.276 650.716 173.176 654.716 168.176C655.516 167.176 656.316 166.076 657.116 164.876C658.116 163.476 658.716 162.176 658.916 160.976C659.316 159.976 659.116 158.976 658.316 157.976C656.516 160.376 653.916 163.576 650.516 167.576C647.316 171.576 643.716 175.676 639.716 179.876C635.916 183.876 632.116 187.376 628.316 190.376C624.716 193.176 621.516 194.576 618.716 194.576C617.516 194.576 616.016 194.376 614.216 193.976C612.416 193.376 611.016 192.276 610.016 190.676C608.616 188.276 607.116 184.576 605.516 179.576C603.916 174.576 602.416 169.176 601.016 163.376L597.716 146.876C602.116 142.276 606.416 138.676 610.616 136.076C615.016 133.276 619.116 131.876 622.916 131.876C624.916 131.876 626.716 132.276 628.316 133.076C629.916 133.676 630.716 135.176 630.716 137.576C630.716 137.976 631.016 138.276 631.616 138.476C632.216 138.676 632.616 138.676 632.816 138.476C633.416 137.876 633.816 137.276 634.016 136.676C634.216 136.076 634.816 135.076 635.816 133.676C638.616 129.476 640.016 125.976 640.016 123.176C640.016 119.776 637.816 118.076 633.416 118.076C629.016 118.076 624.516 119.476 619.916 122.276C613.316 126.276 605.616 132.776 596.816 141.776L595.916 136.676C594.516 138.476 593.216 139.976 592.016 141.176C590.816 142.176 589.516 143.676 588.116 145.676C587.116 147.076 586.316 148.276 585.716 149.276C585.116 150.276 584.816 151.476 584.816 152.876V154.076C585.016 154.476 585.116 154.876 585.116 155.276C583.116 157.676 581.016 160.276 578.816 163.076L572.216 171.476C576.016 161.476 580.316 150.276 585.116 137.876C590.116 125.476 595.516 113.176 601.316 100.976C607.116 88.5764 613.016 77.7764 619.016 68.5764C623.616 61.3764 628.616 54.5764 634.016 48.1764C639.416 41.7764 646.116 36.9764 654.116 33.7764C661.316 30.9764 668.416 29.5764 675.416 29.5764C678.016 29.5764 680.716 30.1764 683.516 31.3764C686.316 32.3764 687.716 34.4764 687.716 37.6764C687.716 38.0764 688.016 38.2764 688.616 38.2764C689.816 38.2764 690.416 37.8764 690.416 37.0764V28.3764C690.416 24.9764 689.116 22.4764 686.516 20.8764C683.916 19.2764 681.116 18.4764 678.116 18.4764C668.916 18.4764 659.816 21.5764 650.816 27.7764C641.816 33.7764 633.316 41.5764 625.316 51.1764C617.516 60.5764 610.816 70.3764 605.216 80.5764C597.216 94.5764 590.016 108.076 583.616 121.076C577.416 134.076 571.516 146.976 565.916 159.776C560.316 172.576 554.416 185.876 548.216 199.676C547.416 201.676 548.616 202.676 551.816 202.676C554.016 202.676 556.216 202.276 558.416 201.476C560.816 200.676 562.216 199.676 562.616 198.476C564.016 194.476 566.816 188.876 571.016 181.676C575.416 174.476 580.416 167.276 586.016 160.076C586.816 163.276 587.816 167.476 589.016 172.676C590.216 177.876 591.616 182.876 593.216 187.676C594.816 192.476 596.416 196.076 598.016 198.476ZM60.5985 199.676C63.7985 202.876 69.4985 204.476 77.6985 204.476C86.0985 204.476 94.1985 202.476 101.999 198.476C109.799 194.276 116.899 189.176 123.299 183.176C129.699 177.176 134.899 171.376 138.899 165.776C140.299 163.576 140.999 161.976 140.999 160.976C140.999 160.176 140.699 159.476 140.099 158.876C137.499 162.276 133.699 166.576 128.699 171.776C123.899 176.776 118.599 181.476 112.799 185.876C106.999 190.276 101.099 193.476 95.0985 195.476C92.4985 196.276 90.0985 196.876 87.8985 197.276C85.6985 197.676 83.7985 197.876 82.1985 197.876C78.1985 197.876 75.2985 196.776 73.4985 194.576C71.8985 192.376 71.0985 189.576 71.0985 186.176C71.0985 183.376 71.4985 180.276 72.2985 176.876C73.0985 173.476 74.1985 169.976 75.5985 166.376C79.1985 166.376 82.9985 165.976 86.9985 165.176C90.9985 164.376 94.4985 163.576 97.4985 162.776C102.499 161.176 107.699 159.176 113.099 156.776C118.499 154.176 122.999 150.876 126.599 146.876C130.399 142.876 132.299 137.776 132.299 131.576C132.299 128.176 131.299 125.276 129.299 122.876C127.299 120.276 123.699 118.976 118.499 118.976C112.499 118.976 106.299 120.776 99.8985 124.376C93.4985 127.976 87.5985 132.376 82.1985 137.576C76.7985 142.776 72.4985 147.776 69.2985 152.576C66.4985 157.176 63.4985 162.776 60.2985 169.376C57.2985 175.976 55.7985 182.176 55.7985 187.976C55.7985 192.576 57.3985 196.476 60.5985 199.676ZM86.6985 160.376C83.4985 160.576 80.5985 160.576 77.9985 160.376C79.9985 155.976 82.6985 150.976 86.0985 145.376C89.4985 139.776 93.4985 134.876 98.0985 130.676C102.699 126.276 107.899 124.076 113.699 124.076C115.899 124.076 117.499 124.876 118.499 126.476C119.499 128.076 119.999 130.076 119.999 132.476C119.999 136.676 118.099 141.476 114.299 146.876C110.699 152.076 104.799 155.876 96.5985 158.276C93.3985 159.276 90.0985 159.976 86.6985 160.376ZM183.306 158.276C186.106 158.476 188.706 158.676 191.106 158.876C191.906 158.876 192.906 158.276 194.106 157.076C195.306 155.676 196.306 154.276 197.106 152.876C197.906 151.476 198.106 150.776 197.706 150.776C195.106 150.976 191.806 151.176 187.806 151.376C183.806 151.576 179.206 151.676 174.006 151.676C170.206 151.476 166.506 151.376 162.906 151.376C159.506 151.176 156.706 150.876 154.506 150.476C153.906 150.276 152.906 150.876 151.506 152.276C150.306 153.676 149.306 155.076 148.506 156.476C147.706 157.876 147.506 158.576 147.906 158.576C152.506 158.176 156.706 157.976 160.506 157.976C164.506 157.776 168.806 157.676 173.406 157.676C177.406 157.676 180.706 157.876 183.306 158.276ZM266.59 227.076V264.076H269.59V227.076H266.59ZM270.59 264.076V227.076H273.59V264.076H270.59ZM355.59 264.076V227.076H358.59V264.076H355.59ZM440.59 227.076V264.076H443.59V227.076H440.59ZM525.59 264.076V227.076H528.59V264.076H525.59ZM610.59 227.076V264.076H613.59V227.076H610.59ZM278.59 264.076V227.076H281.59H284.59V264.076H281.59H278.59ZM363.59 227.076V264.076H366.59H369.59V227.076H366.59H363.59ZM448.59 264.076V227.076H451.59H454.59V264.076H451.59H448.59ZM533.59 227.076V264.076H536.59H539.59V227.076H536.59H533.59ZM618.59 264.076V227.076H621.59H624.59V264.076H621.59H618.59ZM289.59 264.076V227.076H292.59V264.076H289.59ZM374.59 227.076V264.076H377.59V227.076H374.59ZM459.59 264.076V227.076H462.59V264.076H459.59ZM544.59 227.076V264.076H547.59V227.076H544.59ZM629.59 264.076V227.076H632.59V264.076H629.59ZM312.59 227.076V264.076H315.59V227.076H312.59ZM397.59 264.076V227.076H400.59V264.076H397.59ZM482.59 227.076V264.076H485.59V227.076H482.59ZM567.59 264.076V227.076H570.59V264.076H567.59ZM320.59 227.076V264.076H323.59V227.076H320.59ZM405.59 264.076V227.076H408.59V264.076H405.59ZM490.59 227.076V264.076H493.59V227.076H490.59ZM575.59 264.076V227.076H578.59V264.076H575.59ZM351.59 264.076V227.076H354.59V264.076H351.59ZM436.59 227.076V264.076H439.59V227.076H436.59ZM521.59 264.076V227.076H524.59V264.076H521.59ZM606.59 227.076V264.076H609.59V227.076H606.59ZM274.59 264.076V227.076H277.59V264.076H274.59ZM359.59 227.076V264.076H362.59V227.076H359.59ZM444.59 264.076V227.076H447.59V264.076H444.59ZM529.59 227.076V264.076H532.59V227.076H529.59ZM614.59 264.076V227.076H617.59V264.076H614.59ZM490.09 342.576H492.59H692.59V347.576H492.59H490.09V342.576ZM492.59 335.576H490.09V340.576H492.59H692.59V335.576H492.59Z" fill="#E91E63"/>
</svg>
